<svg xmlns="http://www.w3.org/2000/svg" xmlns:xlink="http://www.w3.org/1999/xlink" width="2772" height="332pt" viewBox="0 0 2079 332"><g id="graph0" class="graph" transform="scale(1 1) rotate(0) translate(4 327.5)"><title>div_mod_3</title><polygon fill="#fff" stroke="none" points="-4 4 -4 -327.5 2075.14 -327.5 2075.14 4 -4 4"/><text x="1035.57" y="-7.2" font-family="Times New Roman,serif" font-size="14" text-anchor="middle" xml:space="preserve">div_mod_3</text><g id="node1" class="node"><title>n6</title><polygon fill="none" stroke="#000" points="54 -158.54 54 -173.46 38.18 -184 15.82 -184 0 -173.46 0 -158.54 15.82 -148 38.18 -148 54 -158.54"/><text x="27" y="-160.95" font-family="Times New Roman,serif" font-size="14" text-anchor="middle" xml:space="preserve">n</text></g><g id="node18" class="node"><title>x0</title><path fill="none" stroke="#000" d="M102,-203C102,-203 140.5,-203 140.5,-203 146.5,-203 152.5,-209 152.5,-215 152.5,-215 152.5,-227 152.5,-227 152.5,-233 146.5,-239 140.5,-239 140.5,-239 102,-239 102,-239 96,-239 90,-233 90,-227 90,-227 90,-215 90,-215 90,-209 96,-203 102,-203"/><text x="121.25" y="-216.2" font-family="Times New Roman,serif" font-size="14" text-anchor="middle" xml:space="preserve">7:2 - 5:0</text></g><g id="edge50" class="edge"><title>n6:e-&gt;x0:w</title><path fill="none" stroke="#000" stroke-width="3" d="M54,-166C78.5,-166 66.72,-204.61 79.31,-217.28"/><polygon fill="#000" stroke="#000" stroke-width="3" points="75.15 -219.46 85.74 -219.67 77.59 -212.9 75.15 -219.46"/></g><g id="node19" class="node"><title>x1</title><path fill="none" stroke="#000" d="M102,-148C102,-148 140.5,-148 140.5,-148 146.5,-148 152.5,-154 152.5,-160 152.5,-160 152.5,-172 152.5,-172 152.5,-178 146.5,-184 140.5,-184 140.5,-184 102,-184 102,-184 96,-184 90,-178 90,-172 90,-172 90,-160 90,-160 90,-154 96,-148 102,-148"/><text x="121.25" y="-161.2" font-family="Times New Roman,serif" font-size="14" text-anchor="middle" xml:space="preserve">1:0 - 1:0</text></g><g id="edge53" class="edge"><title>n6:e-&gt;x1:w</title><path fill="none" stroke="#000" stroke-width="3" d="M54,-166C65.38,-166 70.68,-166.13 78.55,-166.2"/><polygon fill="#000" stroke="#000" stroke-width="3" points="75.44 -169.69 85.46 -166.23 75.48 -162.69 75.44 -169.69"/></g><g id="node30" class="node"><title>x8</title><path fill="none" stroke="#000" d="M341.95,-287C341.95,-287 380.45,-287 380.45,-287 386.45,-287 392.45,-293 392.45,-299 392.45,-299 392.45,-311 392.45,-311 392.45,-317 386.45,-323 380.45,-323 380.45,-323 341.95,-323 341.95,-323 335.95,-323 329.95,-317 329.95,-311 329.95,-311 329.95,-299 329.95,-299 329.95,-293 335.95,-287 341.95,-287"/><text x="361.2" y="-300.2" font-family="Times New Roman,serif" font-size="14" text-anchor="middle" xml:space="preserve">7:2 - 5:0</text></g><g id="edge54" class="edge"><title>n6:e-&gt;x8:w</title><path fill="none" stroke="#000" stroke-width="3" d="M54,-166C94.21,-166 59.15,-223.21 90,-249 170.76,-316.52 216.55,-306.11 317.67,-305.3"/><polygon fill="#000" stroke="#000" stroke-width="3" points="314.42 -308.81 324.41 -305.27 314.39 -301.81 314.42 -308.81"/></g><g id="node43" class="node"><title>x15</title><path fill="none" stroke="#000" d="M102,-93C102,-93 140.5,-93 140.5,-93 146.5,-93 152.5,-99 152.5,-105 152.5,-105 152.5,-117 152.5,-117 152.5,-123 146.5,-129 140.5,-129 140.5,-129 102,-129 102,-129 96,-129 90,-123 90,-117 90,-117 90,-105 90,-105 90,-99 96,-93 102,-93"/><text x="121.25" y="-106.2" font-family="Times New Roman,serif" font-size="14" text-anchor="middle" xml:space="preserve">7:2 - 5:0</text></g><g id="edge51" class="edge"><title>n6:e-&gt;x15:w</title><path fill="none" stroke="#000" stroke-width="3" d="M54,-166C78.34,-166 66.79,-127.74 79.36,-115.19"/><polygon fill="#000" stroke="#000" stroke-width="3" points="77.58 -119.58 85.74 -112.83 75.15 -113.01 77.58 -119.58"/></g><g id="node47" class="node"><title>x19</title><path fill="none" stroke="#000" d="M102,-38C102,-38 140.5,-38 140.5,-38 146.5,-38 152.5,-44 152.5,-50 152.5,-50 152.5,-62 152.5,-62 152.5,-68 146.5,-74 140.5,-74 140.5,-74 102,-74 102,-74 96,-74 90,-68 90,-62 90,-62 90,-50 90,-50 90,-44 96,-38 102,-38"/><text x="121.25" y="-51.2" font-family="Times New Roman,serif" font-size="14" text-anchor="middle" xml:space="preserve">1:0 - 1:0</text></g><g id="edge52" class="edge"><title>n6:e-&gt;x19:w</title><path fill="none" stroke="#000" stroke-width="3" d="M54,-166C100.72,-166 49.69,-75.08 78.85,-58.75"/><polygon fill="#000" stroke="#000" stroke-width="3" points="76.58 -62.84 85.57 -57.24 75.05 -56.01 76.58 -62.84"/></g><g id="node2" class="node"><title>n7</title><polygon fill="none" stroke="#000" points="235.38 -129 206.91 -111 235.38 -93 263.84 -111 235.38 -129"/><text x="235.38" y="-105.95" font-family="Times New Roman,serif" font-size="14" text-anchor="middle" xml:space="preserve">q1</text></g><g id="node3" class="node"><title>n8</title><polygon fill="none" stroke="#000" points="585.52 -116 557.05 -98 585.52 -80 613.99 -98 585.52 -116"/><text x="585.52" y="-92.95" font-family="Times New Roman,serif" font-size="14" text-anchor="middle" xml:space="preserve">q2</text></g><g id="node4" class="node"><title>n9</title><polygon fill="none" stroke="#000" points="935.66 -116 907.19 -98 935.66 -80 964.13 -98 935.66 -116"/><text x="935.66" y="-92.95" font-family="Times New Roman,serif" font-size="14" text-anchor="middle" xml:space="preserve">q3</text></g><g id="node5" class="node"><title>n10</title><polygon fill="none" stroke="#000" points="1285.8 -116 1257.33 -98 1285.8 -80 1314.27 -98 1285.8 -116"/><text x="1285.8" y="-92.95" font-family="Times New Roman,serif" font-size="14" text-anchor="middle" xml:space="preserve">q4</text></g><g id="node6" class="node"><title>n11</title><polygon fill="none" stroke="#000" points="2062.83 -229.54 2062.83 -244.46 2036.76 -255 1999.89 -255 1973.82 -244.46 1973.82 -229.54 1999.89 -219 2036.76 -219 2062.83 -229.54"/><text x="2018.33" y="-231.95" font-family="Times New Roman,serif" font-size="14" text-anchor="middle" xml:space="preserve">quotient</text></g><g id="node7" class="node"><title>n12</title><polygon fill="none" stroke="#000" points="1577.66 -304 1490.57 -286 1577.66 -268 1664.76 -286 1577.66 -304"/><text x="1577.66" y="-280.95" font-family="Times New Roman,serif" font-size="14" text-anchor="middle" xml:space="preserve">quotient_sum</text></g><g id="node37" class="node"><title>c32</title><polygon fill="none" stroke="#000" points="1700.76 -212.5 1700.76 -261.5 1794.51 -261.5 1794.51 -212.5 1700.76 -212.5"/><text x="1713.64" y="-244.2" font-family="Times New Roman,serif" font-size="14" text-anchor="middle" xml:space="preserve">A</text><polyline fill="none" stroke="#000" points="1700.76 -237 1726.51 -237"/><text x="1713.64" y="-219.7" font-family="Times New Roman,serif" font-size="14" text-anchor="middle" xml:space="preserve">B</text><polyline fill="none" stroke="#000" points="1726.51 -212.5 1726.51 -261.5"/><text x="1747.64" y="-240.2" font-family="Times New Roman,serif" font-size="14" text-anchor="middle" xml:space="preserve">$9</text><text x="1747.64" y="-223.7" font-family="Times New Roman,serif" font-size="14" text-anchor="middle" xml:space="preserve">$add</text><polyline fill="none" stroke="#000" points="1768.76 -212.5 1768.76 -261.5"/><text x="1781.64" y="-232.2" font-family="Times New Roman,serif" font-size="14" text-anchor="middle" xml:space="preserve">Y</text></g><g id="edge16" class="edge"><title>n12:e-&gt;c32:w</title><path fill="none" stroke="#000" stroke-width="3" d="M1664.76,-286C1682.98,-286 1680.51,-262.66 1690.32,-253.18"/><polygon fill="#000" stroke="#000" stroke-width="3" points="1688.39 -257.65 1696.51 -250.85 1685.92 -251.1 1688.39 -257.65"/></g><g id="node40" class="node"><title>c35</title><polygon fill="none" stroke="#000" points="1830.51 -200.25 1830.51 -273.75 1929.51 -273.75 1929.51 -200.25 1830.51 -200.25"/><text x="1843.39" y="-256.45" font-family="Times New Roman,serif" font-size="14" text-anchor="middle" xml:space="preserve">A</text><polyline fill="none" stroke="#000" points="1830.51 -249.25 1856.26 -249.25"/><text x="1843.39" y="-231.95" font-family="Times New Roman,serif" font-size="14" text-anchor="middle" xml:space="preserve">B</text><polyline fill="none" stroke="#000" points="1830.51 -224.75 1856.26 -224.75"/><text x="1843.39" y="-207.45" font-family="Times New Roman,serif" font-size="14" text-anchor="middle" xml:space="preserve">S</text><polyline fill="none" stroke="#000" points="1856.26 -200.25 1856.26 -273.75"/><text x="1880.01" y="-240.2" font-family="Times New Roman,serif" font-size="14" text-anchor="middle" xml:space="preserve">$11</text><text x="1880.01" y="-223.7" font-family="Times New Roman,serif" font-size="14" text-anchor="middle" xml:space="preserve">$mux</text><polyline fill="none" stroke="#000" points="1903.76 -200.25 1903.76 -273.75"/><text x="1916.64" y="-231.95" font-family="Times New Roman,serif" font-size="14" text-anchor="middle" xml:space="preserve">Y</text></g><g id="edge17" class="edge"><title>n12:e-&gt;c35:w</title><path fill="none" stroke="#000" stroke-width="3" d="M1664.76,-286C1722.81,-286 1737.47,-281.77 1794.51,-271 1806.2,-268.79 1811.14,-264.85 1819.13,-262.81"/><polygon fill="#000" stroke="#000" stroke-width="3" points="1816.47 -266.64 1826 -262.02 1815.67 -259.68 1816.47 -266.64"/></g><g id="node8" class="node"><title>n13</title><polygon fill="none" stroke="#000" points="235.38 -74 208.38 -56 235.38 -38 262.38 -56 235.38 -74"/><text x="235.38" y="-50.95" font-family="Times New Roman,serif" font-size="14" text-anchor="middle" xml:space="preserve">r1</text></g><g id="node9" class="node"><title>n14</title><polygon fill="none" stroke="#000" points="585.52 -61 558.52 -43 585.52 -25 612.52 -43 585.52 -61"/><text x="585.52" y="-37.95" font-family="Times New Roman,serif" font-size="14" text-anchor="middle" xml:space="preserve">r2</text></g><g id="node10" class="node"><title>n15</title><polygon fill="none" stroke="#000" points="935.66 -61 908.66 -43 935.66 -25 962.66 -43 935.66 -61"/><text x="935.66" y="-37.95" font-family="Times New Roman,serif" font-size="14" text-anchor="middle" xml:space="preserve">r3</text></g><g id="node11" class="node"><title>n16</title><polygon fill="none" stroke="#000" points="1285.8 -61 1258.8 -43 1285.8 -25 1312.8 -43 1285.8 -61"/><text x="1285.8" y="-37.95" font-family="Times New Roman,serif" font-size="14" text-anchor="middle" xml:space="preserve">r4</text></g><g id="node12" class="node"><title>n17</title><polygon fill="none" stroke="#000" points="361.2 -179 318.25 -161 361.2 -143 404.14 -161 361.2 -179"/><text x="361.2" y="-155.95" font-family="Times New Roman,serif" font-size="14" text-anchor="middle" xml:space="preserve">rem1</text></g><g id="node21" class="node"><title>x2</title><path fill="none" stroke="#000" d="M452.14,-190C452.14,-190 490.64,-190 490.64,-190 496.64,-190 502.64,-196 502.64,-202 502.64,-202 502.64,-214 502.64,-214 502.64,-220 496.64,-226 490.64,-226 490.64,-226 452.14,-226 452.14,-226 446.14,-226 440.14,-220 440.14,-214 440.14,-214 440.14,-202 440.14,-202 440.14,-196 446.14,-190 452.14,-190"/><text x="471.39" y="-203.2" font-family="Times New Roman,serif" font-size="14" text-anchor="middle" xml:space="preserve">6:2 - 4:0</text></g><g id="edge25" class="edge"><title>n17:e-&gt;x2:w</title><path fill="none" stroke="#000" stroke-width="3" d="M404.14,-161C425.8,-161 418.38,-192.8 429.59,-204.22"/><polygon fill="#000" stroke="#000" stroke-width="3" points="425.31 -206.33 435.9 -206.63 427.81 -199.79 425.31 -206.33"/></g><g id="node22" class="node"><title>x3</title><path fill="none" stroke="#000" d="M452.14,-135C452.14,-135 490.64,-135 490.64,-135 496.64,-135 502.64,-141 502.64,-147 502.64,-147 502.64,-159 502.64,-159 502.64,-165 496.64,-171 490.64,-171 490.64,-171 452.14,-171 452.14,-171 446.14,-171 440.14,-165 440.14,-159 440.14,-159 440.14,-147 440.14,-147 440.14,-141 446.14,-135 452.14,-135"/><text x="471.39" y="-148.2" font-family="Times New Roman,serif" font-size="14" text-anchor="middle" xml:space="preserve">1:0 - 1:0</text></g><g id="edge26" class="edge"><title>n17:e-&gt;x3:w</title><path fill="none" stroke="#000" stroke-width="3" d="M404.14,-161C415.91,-161 420.9,-157 428.86,-154.74"/><polygon fill="#000" stroke="#000" stroke-width="3" points="426.19 -158.63 435.64 -153.85 425.27 -151.69 426.19 -158.63"/></g><g id="node31" class="node"><title>x9</title><path fill="none" stroke="#000" d="M452.14,-245C452.14,-245 490.64,-245 490.64,-245 496.64,-245 502.64,-251 502.64,-257 502.64,-257 502.64,-269 502.64,-269 502.64,-275 496.64,-281 490.64,-281 490.64,-281 452.14,-281 452.14,-281 446.14,-281 440.14,-275 440.14,-269 440.14,-269 440.14,-257 440.14,-257 440.14,-251 446.14,-245 452.14,-245"/><text x="471.39" y="-258.2" font-family="Times New Roman,serif" font-size="14" text-anchor="middle" xml:space="preserve">6:2 - 4:0</text></g><g id="edge27" class="edge"><title>n17:e-&gt;x9:w</title><path fill="none" stroke="#000" stroke-width="3" d="M404.14,-161C447.8,-161 402.33,-244.98 429.27,-260.72"/><polygon fill="#000" stroke="#000" stroke-width="3" points="425.19 -263.36 435.72 -262.22 426.77 -256.55 425.19 -263.36"/></g><g id="node44" class="node"><title>x16</title><path fill="none" stroke="#000" d="M452.14,-80C452.14,-80 490.64,-80 490.64,-80 496.64,-80 502.64,-86 502.64,-92 502.64,-92 502.64,-104 502.64,-104 502.64,-110 496.64,-116 490.64,-116 490.64,-116 452.14,-116 452.14,-116 446.14,-116 440.14,-110 440.14,-104 440.14,-104 440.14,-92 440.14,-92 440.14,-86 446.14,-80 452.14,-80"/><text x="471.39" y="-93.2" font-family="Times New Roman,serif" font-size="14" text-anchor="middle" xml:space="preserve">6:2 - 4:0</text></g><g id="edge23" class="edge"><title>n17:e-&gt;x16:w</title><path fill="none" stroke="#000" stroke-width="3" d="M404.14,-161C431.52,-161 415.06,-115.5 429.42,-101.99"/><polygon fill="#000" stroke="#000" stroke-width="3" points="427.56 -106.34 435.85 -99.75 425.26 -99.73 427.56 -106.34"/></g><g id="node48" class="node"><title>x20</title><path fill="none" stroke="#000" d="M452.14,-25C452.14,-25 490.64,-25 490.64,-25 496.64,-25 502.64,-31 502.64,-37 502.64,-37 502.64,-49 502.64,-49 502.64,-55 496.64,-61 490.64,-61 490.64,-61 452.14,-61 452.14,-61 446.14,-61 440.14,-55 440.14,-49 440.14,-49 440.14,-37 440.14,-37 440.14,-31 446.14,-25 452.14,-25"/><text x="471.39" y="-38.2" font-family="Times New Roman,serif" font-size="14" text-anchor="middle" xml:space="preserve">1:0 - 1:0</text></g><g id="edge24" class="edge"><title>n17:e-&gt;x20:w</title><path fill="none" stroke="#000" stroke-width="3" d="M404.14,-161C454.38,-161 396.6,-61.78 429.12,-45.5"/><polygon fill="#000" stroke="#000" stroke-width="3" points="426.59 -49.58 435.69 -44.16 425.19 -42.73 426.59 -49.58"/></g><g id="node13" class="node"><title>n18</title><polygon fill="none" stroke="#000" points="711.34 -177 668.39 -159 711.34 -141 754.28 -159 711.34 -177"/><text x="711.34" y="-153.95" font-family="Times New Roman,serif" font-size="14" text-anchor="middle" xml:space="preserve">rem2</text></g><g id="node24" class="node"><title>x4</title><path fill="none" stroke="#000" d="M802.28,-190C802.28,-190 840.78,-190 840.78,-190 846.78,-190 852.78,-196 852.78,-202 852.78,-202 852.78,-214 852.78,-214 852.78,-220 846.78,-226 840.78,-226 840.78,-226 802.28,-226 802.28,-226 796.28,-226 790.28,-220 790.28,-214 790.28,-214 790.28,-202 790.28,-202 790.28,-196 796.28,-190 802.28,-190"/><text x="821.53" y="-203.2" font-family="Times New Roman,serif" font-size="14" text-anchor="middle" xml:space="preserve">5:2 - 3:0</text></g><g id="edge32" class="edge"><title>n18:e-&gt;x4:w</title><path fill="none" stroke="#000" stroke-width="3" d="M754.28,-159C776.74,-159 768.1,-192.78 779.86,-204.39"/><polygon fill="#000" stroke="#000" stroke-width="3" points="775.43 -206.48 786.03 -206.67 777.87 -199.91 775.43 -206.48"/></g><g id="node25" class="node"><title>x5</title><path fill="none" stroke="#000" d="M802.28,-135C802.28,-135 840.78,-135 840.78,-135 846.78,-135 852.78,-141 852.78,-147 852.78,-147 852.78,-159 852.78,-159 852.78,-165 846.78,-171 840.78,-171 840.78,-171 802.28,-171 802.28,-171 796.28,-171 790.28,-165 790.28,-159 790.28,-159 790.28,-147 790.28,-147 790.28,-141 796.28,-135 802.28,-135"/><text x="821.53" y="-148.2" font-family="Times New Roman,serif" font-size="14" text-anchor="middle" xml:space="preserve">1:0 - 1:0</text></g><g id="edge33" class="edge"><title>n18:e-&gt;x5:w</title><path fill="none" stroke="#000" stroke-width="3" d="M754.28,-159C765.93,-159 771.06,-156.03 779.04,-154.36"/><polygon fill="#000" stroke="#000" stroke-width="3" points="776.16 -158.16 785.76 -153.7 775.47 -151.19 776.16 -158.16"/></g><g id="node33" class="node"><title>x10</title><path fill="none" stroke="#000" d="M802.28,-245C802.28,-245 840.78,-245 840.78,-245 846.78,-245 852.78,-251 852.78,-257 852.78,-257 852.78,-269 852.78,-269 852.78,-275 846.78,-281 840.78,-281 840.78,-281 802.28,-281 802.28,-281 796.28,-281 790.28,-275 790.28,-269 790.28,-269 790.28,-257 790.28,-257 790.28,-251 796.28,-245 802.28,-245"/><text x="821.53" y="-258.2" font-family="Times New Roman,serif" font-size="14" text-anchor="middle" xml:space="preserve">5:2 - 3:0</text></g><g id="edge29" class="edge"><title>n18:e-&gt;x10:w</title><path fill="none" stroke="#000" stroke-width="3" d="M754.28,-159C798.71,-159 751.92,-244.62 779.24,-260.67"/><polygon fill="#000" stroke="#000" stroke-width="3" points="775.33 -263.35 785.86 -262.22 776.92 -256.54 775.33 -263.35"/></g><g id="node45" class="node"><title>x17</title><path fill="none" stroke="#000" d="M802.28,-80C802.28,-80 840.78,-80 840.78,-80 846.78,-80 852.78,-86 852.78,-92 852.78,-92 852.78,-104 852.78,-104 852.78,-110 846.78,-116 840.78,-116 840.78,-116 802.28,-116 802.28,-116 796.28,-116 790.28,-110 790.28,-104 790.28,-104 790.28,-92 790.28,-92 790.28,-86 796.28,-80 802.28,-80"/><text x="821.53" y="-93.2" font-family="Times New Roman,serif" font-size="14" text-anchor="middle" xml:space="preserve">5:2 - 3:0</text></g><g id="edge30" class="edge"><title>n18:e-&gt;x17:w</title><path fill="none" stroke="#000" stroke-width="3" d="M754.28,-159C781.01,-159 765.56,-114.95 779.77,-101.87"/><polygon fill="#000" stroke="#000" stroke-width="3" points="777.67 -106.29 785.99 -99.73 775.4 -99.67 777.67 -106.29"/></g><g id="node49" class="node"><title>x21</title><path fill="none" stroke="#000" d="M802.28,-25C802.28,-25 840.78,-25 840.78,-25 846.78,-25 852.78,-31 852.78,-37 852.78,-37 852.78,-49 852.78,-49 852.78,-55 846.78,-61 840.78,-61 840.78,-61 802.28,-61 802.28,-61 796.28,-61 790.28,-55 790.28,-49 790.28,-49 790.28,-37 790.28,-37 790.28,-31 796.28,-25 802.28,-25"/><text x="821.53" y="-38.2" font-family="Times New Roman,serif" font-size="14" text-anchor="middle" xml:space="preserve">1:0 - 1:0</text></g><g id="edge31" class="edge"><title>n18:e-&gt;x21:w</title><path fill="none" stroke="#000" stroke-width="3" d="M754.28,-159C803.74,-159 747.33,-61.46 779.42,-45.46"/><polygon fill="#000" stroke="#000" stroke-width="3" points="776.73 -49.58 785.83 -44.15 775.34 -42.72 776.73 -49.58"/></g><g id="node14" class="node"><title>n19</title><polygon fill="none" stroke="#000" points="1061.48 -177 1018.53 -159 1061.48 -141 1104.42 -159 1061.48 -177"/><text x="1061.48" y="-153.95" font-family="Times New Roman,serif" font-size="14" text-anchor="middle" xml:space="preserve">rem3</text></g><g id="node27" class="node"><title>x6</title><path fill="none" stroke="#000" d="M1152.42,-190C1152.42,-190 1190.92,-190 1190.92,-190 1196.92,-190 1202.92,-196 1202.92,-202 1202.92,-202 1202.92,-214 1202.92,-214 1202.92,-220 1196.92,-226 1190.92,-226 1190.92,-226 1152.42,-226 1152.42,-226 1146.42,-226 1140.42,-220 1140.42,-214 1140.42,-214 1140.42,-202 1140.42,-202 1140.42,-196 1146.42,-190 1152.42,-190"/><text x="1171.67" y="-203.2" font-family="Times New Roman,serif" font-size="14" text-anchor="middle" xml:space="preserve">3:2 - 1:0</text></g><g id="edge38" class="edge"><title>n19:e-&gt;x6:w</title><path fill="none" stroke="#000" stroke-width="3" d="M1104.42,-159C1126.88,-159 1118.24,-192.78 1130,-204.39"/><polygon fill="#000" stroke="#000" stroke-width="3" points="1125.57 -206.48 1136.17 -206.67 1128.01 -199.91 1125.57 -206.48"/></g><g id="node28" class="node"><title>x7</title><path fill="none" stroke="#000" d="M1152.42,-135C1152.42,-135 1190.92,-135 1190.92,-135 1196.92,-135 1202.92,-141 1202.92,-147 1202.92,-147 1202.92,-159 1202.92,-159 1202.92,-165 1196.92,-171 1190.92,-171 1190.92,-171 1152.42,-171 1152.42,-171 1146.42,-171 1140.42,-165 1140.42,-159 1140.42,-159 1140.42,-147 1140.42,-147 1140.42,-141 1146.42,-135 1152.42,-135"/><text x="1171.67" y="-148.2" font-family="Times New Roman,serif" font-size="14" text-anchor="middle" xml:space="preserve">1:0 - 1:0</text></g><g id="edge39" class="edge"><title>n19:e-&gt;x7:w</title><path fill="none" stroke="#000" stroke-width="3" d="M1104.42,-159C1116.07,-159 1121.2,-156.03 1129.18,-154.36"/><polygon fill="#000" stroke="#000" stroke-width="3" points="1126.3 -158.16 1135.91 -153.7 1125.61 -151.19 1126.3 -158.16"/></g><g id="node35" class="node"><title>x11</title><path fill="none" stroke="#000" d="M1152.42,-245C1152.42,-245 1190.92,-245 1190.92,-245 1196.92,-245 1202.92,-251 1202.92,-257 1202.92,-257 1202.92,-269 1202.92,-269 1202.92,-275 1196.92,-281 1190.92,-281 1190.92,-281 1152.42,-281 1152.42,-281 1146.42,-281 1140.42,-275 1140.42,-269 1140.42,-269 1140.42,-257 1140.42,-257 1140.42,-251 1146.42,-245 1152.42,-245"/><text x="1171.67" y="-258.2" font-family="Times New Roman,serif" font-size="14" text-anchor="middle" xml:space="preserve">3:2 - 1:0</text></g><g id="edge35" class="edge"><title>n19:e-&gt;x11:w</title><path fill="none" stroke="#000" stroke-width="3" d="M1104.42,-159C1148.85,-159 1102.06,-244.62 1129.38,-260.67"/><polygon fill="#000" stroke="#000" stroke-width="3" points="1125.47 -263.35 1136 -262.22 1127.06 -256.54 1125.47 -263.35"/></g><g id="node46" class="node"><title>x18</title><path fill="none" stroke="#000" d="M1152.42,-80C1152.42,-80 1190.92,-80 1190.92,-80 1196.92,-80 1202.92,-86 1202.92,-92 1202.92,-92 1202.92,-104 1202.92,-104 1202.92,-110 1196.92,-116 1190.92,-116 1190.92,-116 1152.42,-116 1152.42,-116 1146.42,-116 1140.42,-110 1140.42,-104 1140.42,-104 1140.42,-92 1140.42,-92 1140.42,-86 1146.42,-80 1152.42,-80"/><text x="1171.67" y="-93.2" font-family="Times New Roman,serif" font-size="14" text-anchor="middle" xml:space="preserve">3:2 - 1:0</text></g><g id="edge36" class="edge"><title>n19:e-&gt;x18:w</title><path fill="none" stroke="#000" stroke-width="3" d="M1104.42,-159C1131.15,-159 1115.71,-114.95 1129.91,-101.87"/><polygon fill="#000" stroke="#000" stroke-width="3" points="1127.82 -106.29 1136.13 -99.73 1125.54 -99.67 1127.82 -106.29"/></g><g id="node50" class="node"><title>x22</title><path fill="none" stroke="#000" d="M1152.42,-25C1152.42,-25 1190.92,-25 1190.92,-25 1196.92,-25 1202.92,-31 1202.92,-37 1202.92,-37 1202.92,-49 1202.92,-49 1202.92,-55 1196.92,-61 1190.92,-61 1190.92,-61 1152.42,-61 1152.42,-61 1146.42,-61 1140.42,-55 1140.42,-49 1140.42,-49 1140.42,-37 1140.42,-37 1140.42,-31 1146.42,-25 1152.42,-25"/><text x="1171.67" y="-38.2" font-family="Times New Roman,serif" font-size="14" text-anchor="middle" xml:space="preserve">1:0 - 1:0</text></g><g id="edge37" class="edge"><title>n19:e-&gt;x22:w</title><path fill="none" stroke="#000" stroke-width="3" d="M1104.42,-159C1153.88,-159 1097.48,-61.46 1129.56,-45.46"/><polygon fill="#000" stroke="#000" stroke-width="3" points="1126.87 -49.58 1135.98 -44.15 1125.48 -42.72 1126.87 -49.58"/></g><g id="node15" class="node"><title>n20</title><polygon fill="none" stroke="#000" points="1411.62 -198 1368.67 -180 1411.62 -162 1454.57 -180 1411.62 -198"/><text x="1411.62" y="-174.95" font-family="Times New Roman,serif" font-size="14" text-anchor="middle" xml:space="preserve">rem4</text></g><g id="node39" class="node"><title>c33</title><polygon fill="none" stroke="#000" points="1534.16 -143.5 1534.16 -192.5 1621.16 -192.5 1621.16 -143.5 1534.16 -143.5"/><text x="1547.04" y="-175.2" font-family="Times New Roman,serif" font-size="14" text-anchor="middle" xml:space="preserve">A</text><polyline fill="none" stroke="#000" points="1534.16 -168 1559.91 -168"/><text x="1547.04" y="-150.7" font-family="Times New Roman,serif" font-size="14" text-anchor="middle" xml:space="preserve">B</text><polyline fill="none" stroke="#000" points="1559.91 -143.5 1559.91 -192.5"/><text x="1577.66" y="-171.2" font-family="Times New Roman,serif" font-size="14" text-anchor="middle" xml:space="preserve">$8</text><text x="1577.66" y="-154.7" font-family="Times New Roman,serif" font-size="14" text-anchor="middle" xml:space="preserve">$eq</text><polyline fill="none" stroke="#000" points="1595.41 -143.5 1595.41 -192.5"/><text x="1608.29" y="-163.2" font-family="Times New Roman,serif" font-size="14" text-anchor="middle" xml:space="preserve">Y</text></g><g id="edge42" class="edge"><title>n20:e-&gt;c33:w</title><path fill="none" stroke="#000" stroke-width="3" d="M1454.57,-180C1485.41,-180 1495.83,-180.19 1521.88,-180.24"/><polygon fill="#000" stroke="#000" stroke-width="3" points="1518.62 -183.74 1528.62 -180.25 1518.63 -176.74 1518.62 -183.74"/></g><g id="node42" class="node"><title>c36</title><polygon fill="none" stroke="#000" points="1830.51 -54.25 1830.51 -127.75 1929.51 -127.75 1929.51 -54.25 1830.51 -54.25"/><text x="1843.39" y="-110.45" font-family="Times New Roman,serif" font-size="14" text-anchor="middle" xml:space="preserve">A</text><polyline fill="none" stroke="#000" points="1830.51 -103.25 1856.26 -103.25"/><text x="1843.39" y="-85.95" font-family="Times New Roman,serif" font-size="14" text-anchor="middle" xml:space="preserve">B</text><polyline fill="none" stroke="#000" points="1830.51 -78.75 1856.26 -78.75"/><text x="1843.39" y="-61.45" font-family="Times New Roman,serif" font-size="14" text-anchor="middle" xml:space="preserve">S</text><polyline fill="none" stroke="#000" points="1856.26 -54.25 1856.26 -127.75"/><text x="1880.01" y="-94.2" font-family="Times New Roman,serif" font-size="14" text-anchor="middle" xml:space="preserve">$13</text><text x="1880.01" y="-77.7" font-family="Times New Roman,serif" font-size="14" text-anchor="middle" xml:space="preserve">$mux</text><polyline fill="none" stroke="#000" points="1903.76 -54.25 1903.76 -127.75"/><text x="1916.64" y="-85.95" font-family="Times New Roman,serif" font-size="14" text-anchor="middle" xml:space="preserve">Y</text></g><g id="edge43" class="edge"><title>n20:e-&gt;c36:w</title><path fill="none" stroke="#000" stroke-width="3" d="M1454.57,-180C1480.53,-180 1467.55,-146 1490.57,-134 1621.33,-65.83 1676.38,-112.97 1819.17,-115.4"/><polygon fill="#000" stroke="#000" stroke-width="3" points="1815.94 -118.88 1825.97 -115.46 1816 -111.88 1815.94 -118.88"/></g><g id="node16" class="node"><title>n21</title><polygon fill="none" stroke="#000" points="2071.14 -83.54 2071.14 -98.46 2040.2 -109 1996.45 -109 1965.51 -98.46 1965.51 -83.54 1996.45 -73 2040.2 -73 2071.14 -83.54"/><text x="2018.33" y="-85.95" font-family="Times New Roman,serif" font-size="14" text-anchor="middle" xml:space="preserve">remainder</text></g><g id="node17" class="node"><title>c25</title><polygon fill="none" stroke="#000" points="188.5 -153.5 188.5 -202.5 282.25 -202.5 282.25 -153.5 188.5 -153.5"/><text x="201.38" y="-185.2" font-family="Times New Roman,serif" font-size="14" text-anchor="middle" xml:space="preserve">A</text><polyline fill="none" stroke="#000" points="188.5 -178 214.25 -178"/><text x="201.38" y="-160.7" font-family="Times New Roman,serif" font-size="14" text-anchor="middle" xml:space="preserve">B</text><polyline fill="none" stroke="#000" points="214.25 -153.5 214.25 -202.5"/><text x="235.38" y="-181.2" font-family="Times New Roman,serif" font-size="14" text-anchor="middle" xml:space="preserve">$1</text><text x="235.38" y="-164.7" font-family="Times New Roman,serif" font-size="14" text-anchor="middle" xml:space="preserve">$add</text><polyline fill="none" stroke="#000" points="256.5 -153.5 256.5 -202.5"/><text x="269.38" y="-173.2" font-family="Times New Roman,serif" font-size="14" text-anchor="middle" xml:space="preserve">Y</text></g><g id="edge22" class="edge"><title>c25:e-&gt;n17:w</title><path fill="none" stroke="#000" stroke-width="3" d="M282.25,-178.25C295.42,-178.25 299.1,-168.75 307.37,-163.85"/><polygon fill="#000" stroke="#000" stroke-width="3" points="305.07 -168.07 313.86 -162.15 303.3 -161.3 305.07 -168.07"/></g><g id="edge1" class="edge"><title>x0:e-&gt;c25:w</title><path fill="none" stroke="#000" stroke-width="3" d="M164.3,-215.92C169.49,-210.19 171.56,-200.93 176.79,-195.23"/><polygon fill="none" stroke="#000" stroke-width="3" points="166.01 -215.19 162.08 -221.23 154.98 -219.93 158.91 -213.88 166.01 -215.19"/><polygon fill="none" stroke="#000" stroke-width="3" points="174.97 -196.01 178.92 -189.98 186.01 -191.31 182.06 -197.34 174.97 -196.01"/></g><g id="edge2" class="edge"><title>x1:e-&gt;c25:w</title><path fill="none" stroke="#000" stroke-width="3" d="M165.22,-165.94C168.82,-165.9 171.95,-165.85 175.53,-165.82"/><polygon fill="none" stroke="#000" stroke-width="3" points="167.2 -165.93 161.22 -169.96 155.2 -165.99 161.18 -161.96 167.2 -165.93"/><polygon fill="none" stroke="#000" stroke-width="3" points="173.8 -165.82 179.78 -161.79 185.8 -165.76 179.82 -169.79 173.8 -165.82"/></g><g id="node20" class="node"><title>c26</title><polygon fill="none" stroke="#000" points="538.64 -140.5 538.64 -189.5 632.39 -189.5 632.39 -140.5 538.64 -140.5"/><text x="551.52" y="-172.2" font-family="Times New Roman,serif" font-size="14" text-anchor="middle" xml:space="preserve">A</text><polyline fill="none" stroke="#000" points="538.64 -165 564.39 -165"/><text x="551.52" y="-147.7" font-family="Times New Roman,serif" font-size="14" text-anchor="middle" xml:space="preserve">B</text><polyline fill="none" stroke="#000" points="564.39 -140.5 564.39 -189.5"/><text x="585.52" y="-168.2" font-family="Times New Roman,serif" font-size="14" text-anchor="middle" xml:space="preserve">$2</text><text x="585.52" y="-151.7" font-family="Times New Roman,serif" font-size="14" text-anchor="middle" xml:space="preserve">$add</text><polyline fill="none" stroke="#000" points="606.64 -140.5 606.64 -189.5"/><text x="619.52" y="-160.2" font-family="Times New Roman,serif" font-size="14" text-anchor="middle" xml:space="preserve">Y</text></g><g id="edge28" class="edge"><title>c26:e-&gt;n18:w</title><path fill="none" stroke="#000" stroke-width="3" d="M632.39,-165.25C644.06,-165.25 649.17,-162.02 657.14,-160.21"/><polygon fill="#000" stroke="#000" stroke-width="3" points="654.31 -164.03 663.88 -159.48 653.56 -157.07 654.31 -164.03"/></g><g id="edge3" class="edge"><title>x2:e-&gt;c26:w</title><path fill="none" stroke="#000" stroke-width="3" d="M514.44,-202.92C519.63,-197.19 521.71,-187.93 526.93,-182.23"/><polygon fill="none" stroke="#000" stroke-width="3" points="516.15 -202.19 512.22 -208.23 505.13 -206.93 509.05 -200.88 516.15 -202.19"/><polygon fill="none" stroke="#000" stroke-width="3" points="525.11 -183.01 529.07 -176.98 536.15 -178.31 532.2 -184.34 525.11 -183.01"/></g><g id="edge4" class="edge"><title>x3:e-&gt;c26:w</title><path fill="none" stroke="#000" stroke-width="3" d="M515.36,-152.94C518.96,-152.9 522.09,-152.85 525.67,-152.82"/><polygon fill="none" stroke="#000" stroke-width="3" points="517.35 -152.93 511.37 -156.96 505.35 -152.99 511.33 -148.96 517.35 -152.93"/><polygon fill="none" stroke="#000" stroke-width="3" points="523.94 -152.82 529.92 -148.79 535.94 -152.76 529.96 -156.79 523.94 -152.82"/></g><g id="node23" class="node"><title>c27</title><polygon fill="none" stroke="#000" points="888.78 -140.5 888.78 -189.5 982.53 -189.5 982.53 -140.5 888.78 -140.5"/><text x="901.66" y="-172.2" font-family="Times New Roman,serif" font-size="14" text-anchor="middle" xml:space="preserve">A</text><polyline fill="none" stroke="#000" points="888.78 -165 914.53 -165"/><text x="901.66" y="-147.7" font-family="Times New Roman,serif" font-size="14" text-anchor="middle" xml:space="preserve">B</text><polyline fill="none" stroke="#000" points="914.53 -140.5 914.53 -189.5"/><text x="935.66" y="-168.2" font-family="Times New Roman,serif" font-size="14" text-anchor="middle" xml:space="preserve">$3</text><text x="935.66" y="-151.7" font-family="Times New Roman,serif" font-size="14" text-anchor="middle" xml:space="preserve">$add</text><polyline fill="none" stroke="#000" points="956.78 -140.5 956.78 -189.5"/><text x="969.66" y="-160.2" font-family="Times New Roman,serif" font-size="14" text-anchor="middle" xml:space="preserve">Y</text></g><g id="edge34" class="edge"><title>c27:e-&gt;n19:w</title><path fill="none" stroke="#000" stroke-width="3" d="M982.53,-165.25C994.21,-165.25 999.31,-162.02 1007.28,-160.21"/><polygon fill="#000" stroke="#000" stroke-width="3" points="1004.45 -164.03 1014.02 -159.48 1003.7 -157.07 1004.45 -164.03"/></g><g id="edge5" class="edge"><title>x4:e-&gt;c27:w</title><path fill="none" stroke="#000" stroke-width="3" d="M864.58,-202.92C869.77,-197.19 871.85,-187.93 877.07,-182.23"/><polygon fill="none" stroke="#000" stroke-width="3" points="866.29 -202.19 862.36 -208.23 855.27 -206.93 859.2 -200.88 866.29 -202.19"/><polygon fill="none" stroke="#000" stroke-width="3" points="875.25 -183.01 879.21 -176.98 886.3 -178.31 882.34 -184.34 875.25 -183.01"/></g><g id="edge6" class="edge"><title>x5:e-&gt;c27:w</title><path fill="none" stroke="#000" stroke-width="3" d="M865.51,-152.94C869.1,-152.9 872.23,-152.85 875.81,-152.82"/><polygon fill="none" stroke="#000" stroke-width="3" points="867.49 -152.93 861.51 -156.96 855.49 -152.99 861.47 -148.96 867.49 -152.93"/><polygon fill="none" stroke="#000" stroke-width="3" points="874.08 -152.82 880.06 -148.79 886.08 -152.76 880.1 -156.79 874.08 -152.82"/></g><g id="node26" class="node"><title>c28</title><polygon fill="none" stroke="#000" points="1238.92 -155.5 1238.92 -204.5 1332.67 -204.5 1332.67 -155.5 1238.92 -155.5"/><text x="1251.8" y="-187.2" font-family="Times New Roman,serif" font-size="14" text-anchor="middle" xml:space="preserve">A</text><polyline fill="none" stroke="#000" points="1238.92 -180 1264.67 -180"/><text x="1251.8" y="-162.7" font-family="Times New Roman,serif" font-size="14" text-anchor="middle" xml:space="preserve">B</text><polyline fill="none" stroke="#000" points="1264.67 -155.5 1264.67 -204.5"/><text x="1285.8" y="-183.2" font-family="Times New Roman,serif" font-size="14" text-anchor="middle" xml:space="preserve">$4</text><text x="1285.8" y="-166.7" font-family="Times New Roman,serif" font-size="14" text-anchor="middle" xml:space="preserve">$add</text><polyline fill="none" stroke="#000" points="1306.92 -155.5 1306.92 -204.5"/><text x="1319.8" y="-175.2" font-family="Times New Roman,serif" font-size="14" text-anchor="middle" xml:space="preserve">Y</text></g><g id="edge41" class="edge"><title>c28:e-&gt;n20:w</title><path fill="none" stroke="#000" stroke-width="3" d="M1332.67,-180.25C1344.05,-180.25 1349.36,-180.12 1357.23,-180.05"/><polygon fill="#000" stroke="#000" stroke-width="3" points="1354.15 -183.56 1364.13 -180.02 1354.12 -176.56 1354.15 -183.56"/></g><g id="edge7" class="edge"><title>x6:e-&gt;c28:w</title><path fill="none" stroke="#000" stroke-width="3" d="M1215.25,-204.5C1219.36,-201.89 1222.5,-198.34 1226.62,-195.74"/><polygon fill="none" stroke="#000" stroke-width="3" points="1217.07 -203.99 1212.39 -209.47 1205.53 -207.26 1210.21 -201.78 1217.07 -203.99"/><polygon fill="none" stroke="#000" stroke-width="3" points="1224.78 -196.26 1229.46 -190.77 1236.32 -192.99 1231.64 -198.47 1224.78 -196.26"/></g><g id="edge8" class="edge"><title>x7:e-&gt;c28:w</title><path fill="none" stroke="#000" stroke-width="3" d="M1215.45,-156.42C1219.39,-158.8 1222.49,-161.97 1226.43,-164.35"/><polygon fill="none" stroke="#000" stroke-width="3" points="1217.11 -156.87 1210.27 -159.15 1205.53 -153.71 1212.38 -151.43 1217.11 -156.87"/><polygon fill="none" stroke="#000" stroke-width="3" points="1224.74 -163.89 1231.58 -161.6 1236.32 -167.04 1229.48 -169.32 1224.74 -163.89"/></g><g id="node29" class="node"><title>c29</title><polygon fill="none" stroke="#000" points="538.64 -273.5 538.64 -322.5 632.39 -322.5 632.39 -273.5 538.64 -273.5"/><text x="551.52" y="-305.2" font-family="Times New Roman,serif" font-size="14" text-anchor="middle" xml:space="preserve">A</text><polyline fill="none" stroke="#000" points="538.64 -298 564.39 -298"/><text x="551.52" y="-280.7" font-family="Times New Roman,serif" font-size="14" text-anchor="middle" xml:space="preserve">B</text><polyline fill="none" stroke="#000" points="564.39 -273.5 564.39 -322.5"/><text x="585.52" y="-301.2" font-family="Times New Roman,serif" font-size="14" text-anchor="middle" xml:space="preserve">$5</text><text x="585.52" y="-284.7" font-family="Times New Roman,serif" font-size="14" text-anchor="middle" xml:space="preserve">$add</text><polyline fill="none" stroke="#000" points="606.64 -273.5 606.64 -322.5"/><text x="619.52" y="-293.2" font-family="Times New Roman,serif" font-size="14" text-anchor="middle" xml:space="preserve">Y</text></g><g id="node32" class="node"><title>c30</title><polygon fill="none" stroke="#000" points="888.78 -273.5 888.78 -322.5 982.53 -322.5 982.53 -273.5 888.78 -273.5"/><text x="901.66" y="-305.2" font-family="Times New Roman,serif" font-size="14" text-anchor="middle" xml:space="preserve">A</text><polyline fill="none" stroke="#000" points="888.78 -298 914.53 -298"/><text x="901.66" y="-280.7" font-family="Times New Roman,serif" font-size="14" text-anchor="middle" xml:space="preserve">B</text><polyline fill="none" stroke="#000" points="914.53 -273.5 914.53 -322.5"/><text x="935.66" y="-301.2" font-family="Times New Roman,serif" font-size="14" text-anchor="middle" xml:space="preserve">$6</text><text x="935.66" y="-284.7" font-family="Times New Roman,serif" font-size="14" text-anchor="middle" xml:space="preserve">$add</text><polyline fill="none" stroke="#000" points="956.78 -273.5 956.78 -322.5"/><text x="969.66" y="-293.2" font-family="Times New Roman,serif" font-size="14" text-anchor="middle" xml:space="preserve">Y</text></g><g id="edge40" class="edge"><title>c29:e-&gt;c30:w</title><path fill="none" stroke="#000" stroke-width="3" d="M632.39,-298.25C742.57,-298.25 772.68,-309.44 877.38,-310.21"/><polygon fill="#000" stroke="#000" stroke-width="3" points="874.23 -313.7 884.24 -310.23 874.26 -306.7 874.23 -313.7"/></g><g id="edge9" class="edge"><title>x8:e-&gt;c29:w</title><path fill="none" stroke="#000" stroke-width="3" d="M406.38,-305.07C456.39,-305.66 475.64,-309.58 525.62,-310.17"/><polygon fill="none" stroke="#000" stroke-width="3" points="408.15 -305.08 402.13 -309.05 396.15 -305.02 402.17 -301.05 408.15 -305.08"/><polygon fill="none" stroke="#000" stroke-width="3" points="523.94 -310.16 529.96 -306.2 535.94 -310.23 529.91 -314.2 523.94 -310.16"/></g><g id="edge10" class="edge"><title>x9:e-&gt;c29:w</title><path fill="none" stroke="#000" stroke-width="3" d="M514.6,-267.39C519.21,-271.41 522.08,-277.35 526.69,-281.38"/><polygon fill="none" stroke="#000" stroke-width="3" points="516.45 -268.06 509.44 -269.75 505.18 -263.93 512.19 -262.24 516.45 -268.06"/><polygon fill="none" stroke="#000" stroke-width="3" points="524.83 -280.7 531.84 -279 536.1 -284.82 529.09 -286.51 524.83 -280.7"/></g><g id="node34" class="node"><title>c31</title><polygon fill="none" stroke="#000" points="1238.92 -261.5 1238.92 -310.5 1332.67 -310.5 1332.67 -261.5 1238.92 -261.5"/><text x="1251.8" y="-293.2" font-family="Times New Roman,serif" font-size="14" text-anchor="middle" xml:space="preserve">A</text><polyline fill="none" stroke="#000" points="1238.92 -286 1264.67 -286"/><text x="1251.8" y="-268.7" font-family="Times New Roman,serif" font-size="14" text-anchor="middle" xml:space="preserve">B</text><polyline fill="none" stroke="#000" points="1264.67 -261.5 1264.67 -310.5"/><text x="1285.8" y="-289.2" font-family="Times New Roman,serif" font-size="14" text-anchor="middle" xml:space="preserve">$7</text><text x="1285.8" y="-272.7" font-family="Times New Roman,serif" font-size="14" text-anchor="middle" xml:space="preserve">$add</text><polyline fill="none" stroke="#000" points="1306.92 -261.5 1306.92 -310.5"/><text x="1319.8" y="-281.2" font-family="Times New Roman,serif" font-size="14" text-anchor="middle" xml:space="preserve">Y</text></g><g id="edge45" class="edge"><title>c30:e-&gt;c31:w</title><path fill="none" stroke="#000" stroke-width="3" d="M982.53,-298.25C1092.59,-298.25 1122.93,-298.25 1227.53,-298.25"/><polygon fill="#000" stroke="#000" stroke-width="3" points="1224.38 -301.75 1234.38 -298.25 1224.38 -294.75 1224.38 -301.75"/></g><g id="edge11" class="edge"><title>x10:e-&gt;c30:w</title><path fill="none" stroke="#000" stroke-width="3" d="M864.75,-267.39C869.36,-271.41 872.22,-277.35 876.84,-281.38"/><polygon fill="none" stroke="#000" stroke-width="3" points="866.59 -268.06 859.58 -269.75 855.32 -263.93 862.33 -262.24 866.59 -268.06"/><polygon fill="none" stroke="#000" stroke-width="3" points="874.97 -280.7 881.98 -279 886.24 -284.82 879.23 -286.51 874.97 -280.7"/></g><g id="edge15" class="edge"><title>c31:e-&gt;n12:w</title><path fill="none" stroke="#000" stroke-width="3" d="M1332.67,-286.25C1398.87,-286.25 1418.24,-286.03 1479.13,-286"/><polygon fill="#000" stroke="#000" stroke-width="3" points="1476.03 -289.5 1486.03 -286 1476.03 -282.5 1476.03 -289.5"/></g><g id="edge12" class="edge"><title>x11:e-&gt;c31:w</title><path fill="none" stroke="#000" stroke-width="3" d="M1215.31,-265.49C1219.2,-267.18 1222.38,-269.41 1226.23,-271.12"/><polygon fill="none" stroke="#000" stroke-width="3" points="1217.34 -265.9 1210.67 -268.64 1205.58 -263.53 1212.25 -260.8 1217.34 -265.9"/><polygon fill="none" stroke="#000" stroke-width="3" points="1224.53 -270.77 1231.21 -268.07 1236.28 -273.2 1229.59 -275.9 1224.53 -270.77"/></g><g id="node36" class="node"><title>v12</title><ellipse cx="1577.66" cy="-229" fill="none" stroke="#000" rx="27" ry="18"/><text x="1577.66" y="-223.95" font-family="Times New Roman,serif" font-size="14" text-anchor="middle" xml:space="preserve">1&apos;1</text></g><g id="edge58" class="edge"><title>v12:e-&gt;c32:w</title><path fill="none" stroke="#000" d="M1605.92,-229C1644.16,-229 1656.33,-225.51 1689.68,-224.86"/><polygon fill="#000" stroke="#000" points="1689.28 -228.36 1699.25 -224.76 1689.22 -221.36 1689.28 -228.36"/></g><g id="edge46" class="edge"><title>c32:e-&gt;c35:w</title><path fill="none" stroke="#000" stroke-width="3" d="M1794.51,-237.25C1805.89,-237.25 1811.2,-237.12 1819.07,-237.05"/><polygon fill="#000" stroke="#000" stroke-width="3" points="1815.99 -240.56 1825.97 -237.02 1815.96 -233.56 1815.99 -240.56"/></g><g id="node38" class="node"><title>v13</title><ellipse cx="1411.62" cy="-126" fill="none" stroke="#000" rx="27" ry="18"/><text x="1411.62" y="-120.95" font-family="Times New Roman,serif" font-size="14" text-anchor="middle" xml:space="preserve">2&apos;11</text></g><g id="edge59" class="edge"><title>v13:e-&gt;c33:w</title><path fill="none" stroke="#000" stroke-width="3" d="M1439.87,-126C1479.31,-126 1488.15,-150.43 1521.85,-155.01"/><polygon fill="#000" stroke="#000" stroke-width="3" points="1518.43 -158.3 1528.63 -155.46 1518.88 -151.31 1518.43 -158.3"/></g><g id="node51" class="node"><title>n5</title><ellipse cx="1747.64" cy="-168" fill="#000" stroke="#000" rx="1.8" ry="1.8"/></g><g id="edge47" class="edge"><title>c33:e-&gt;n5:w</title><path fill="none" stroke="#000" d="M1622.16,-168.25C1672.44,-168.25 1687.81,-168.04 1732.91,-168"/><polygon fill="#000" stroke="#000" points="1732.85 -171.5 1742.85 -168 1732.84 -164.5 1732.85 -171.5"/></g><g id="edge14" class="edge"><title>c35:e-&gt;n11:w</title><path fill="none" stroke="#000" stroke-width="3" d="M1929.51,-237C1944.11,-237 1950.32,-237 1960.99,-237"/><polygon fill="#000" stroke="#000" stroke-width="3" points="1957.86 -240.5 1967.86 -237 1957.86 -233.5 1957.86 -240.5"/></g><g id="node41" class="node"><title>v14</title><ellipse cx="1747.64" cy="-69" fill="none" stroke="#000" rx="27" ry="18"/><text x="1747.64" y="-63.95" font-family="Times New Roman,serif" font-size="14" text-anchor="middle" xml:space="preserve">2&apos;00</text></g><g id="edge60" class="edge"><title>v14:e-&gt;c36:w</title><path fill="none" stroke="#000" stroke-width="3" d="M1775.89,-69C1797.77,-69 1802.95,-84.37 1819.35,-89.42"/><polygon fill="#000" stroke="#000" stroke-width="3" points="1815.62 -92.42 1826.02 -90.36 1816.61 -85.49 1815.62 -92.42"/></g><g id="edge44" class="edge"><title>c36:e-&gt;n21:w</title><path fill="none" stroke="#000" stroke-width="3" d="M1929.51,-91C1940.89,-91 1946.2,-91 1954.07,-91"/><polygon fill="#000" stroke="#000" stroke-width="3" points="1950.97 -94.5 1960.97 -91 1950.97 -87.5 1950.97 -94.5"/></g><g id="edge55" class="edge"><title>x15:e-&gt;n7:w</title><path fill="none" stroke="#000" stroke-width="3" d="M152.5,-111C171.66,-111 179.03,-111 193.95,-111"/><polygon fill="#000" stroke="#000" stroke-width="3" points="190.51 -114.5 200.51 -111 190.51 -107.5 190.51 -114.5"/></g><g id="edge56" class="edge"><title>x16:e-&gt;n8:w</title><path fill="none" stroke="#000" stroke-width="3" d="M502.64,-98C521.8,-98 529.17,-98 544.09,-98"/><polygon fill="#000" stroke="#000" stroke-width="3" points="540.65 -101.5 550.65 -98 540.65 -94.5 540.65 -101.5"/></g><g id="edge57" class="edge"><title>x17:e-&gt;n9:w</title><path fill="none" stroke="#000" stroke-width="3" d="M852.78,-98C871.94,-98 879.31,-98 894.24,-98"/><polygon fill="#000" stroke="#000" stroke-width="3" points="890.79 -101.5 900.79 -98 890.79 -94.5 890.79 -101.5"/></g><g id="edge13" class="edge"><title>x18:e-&gt;n10:w</title><path fill="none" stroke="#000" stroke-width="3" d="M1202.92,-98C1222.08,-98 1229.45,-98 1244.38,-98"/><polygon fill="#000" stroke="#000" stroke-width="3" points="1240.93 -101.5 1250.93 -98 1240.93 -94.5 1240.93 -101.5"/></g><g id="edge18" class="edge"><title>x19:e-&gt;n13:w</title><path fill="none" stroke="#000" stroke-width="3" d="M152.5,-56C172.21,-56 179.79,-56 195.15,-56"/><polygon fill="#000" stroke="#000" stroke-width="3" points="192.02 -59.5 202.02 -56 192.02 -52.5 192.02 -59.5"/></g><g id="edge19" class="edge"><title>x20:e-&gt;n14:w</title><path fill="none" stroke="#000" stroke-width="3" d="M502.64,-43C522.35,-43 529.94,-43 545.29,-43"/><polygon fill="#000" stroke="#000" stroke-width="3" points="542.16 -46.5 552.16 -43 542.16 -39.5 542.16 -46.5"/></g><g id="edge20" class="edge"><title>x21:e-&gt;n15:w</title><path fill="none" stroke="#000" stroke-width="3" d="M852.78,-43C872.49,-43 880.08,-43 895.43,-43"/><polygon fill="#000" stroke="#000" stroke-width="3" points="892.3 -46.5 902.3 -43 892.3 -39.5 892.3 -46.5"/></g><g id="edge21" class="edge"><title>x22:e-&gt;n16:w</title><path fill="none" stroke="#000" stroke-width="3" d="M1202.92,-43C1222.64,-43 1230.22,-43 1245.57,-43"/><polygon fill="#000" stroke="#000" stroke-width="3" points="1242.45 -46.5 1252.45 -43 1242.45 -39.5 1242.45 -46.5"/></g><g id="edge48" class="edge"><title>n5:e-&gt;c35:w</title><path fill="none" stroke="#000" d="M1750.92,-168C1787.33,-168 1789.85,-203.92 1819.38,-211.22"/><polygon fill="#000" stroke="#000" points="1818.67 -214.66 1829.01 -212.33 1819.48 -207.7 1818.67 -214.66"/></g><g id="edge49" class="edge"><title>n5:e-&gt;c36:w</title><path fill="none" stroke="#000" d="M1750.92,-168C1776.91,-168 1778.13,-149.19 1794.51,-129 1811.87,-107.61 1802.31,-76.83 1819.62,-68.59"/><polygon fill="#000" stroke="#000" points="1819.87 -72.11 1829.03 -66.79 1818.55 -65.23 1819.87 -72.11"/></g></g></svg>